<?xml version="1.0" encoding="UTF-8"?>
<svg width="22px" height="21px" viewBox="0 0 22 21" version="1.1" xmlns="http://www.w3.org/2000/svg" xmlns:xlink="http://www.w3.org/1999/xlink">
    <!-- Generator: Sketch 47.1 (45422) - http://www.bohemiancoding.com/sketch -->
    <title>fbmessenger</title>
    <desc>Created with Sketch.</desc>
    <defs></defs>
    <g id="Page-1" stroke="none" stroke-width="1" fill="none" fill-rule="evenodd">
        <g id="Ending-matin" transform="translate(-55.000000, -660.000000)" fill-rule="nonzero" fill="#F4C895">
            <g id="fbmessenger" transform="translate(55.000000, 660.000000)">
                <path d="M11,0 C4.93263158,0 0,4.12612082 0,9.19733077 C0,11.8020886 1.29684211,14.153286 3.38105263,15.8129547 C2.91789474,17.0116043 2.13052632,18.7634768 1.06526316,19.9160245 C0.671578947,20.3539927 1.01894737,21.0224703 1.59789474,20.9994194 C4.97894737,20.8150118 7.22526316,19.2244959 8.38315789,18.1180501 C9.21684211,18.2794068 10.0968421,18.3946615 11,18.3946615 C17.0673684,18.3946615 22,14.2685407 22,9.19733077 C22,4.12612082 17.0673684,0 11,0 Z M16.7663158,8.41359833 L13.4778947,11.6637829 C13.2463158,11.8942924 12.9452632,12.0095472 12.6210526,12.0095472 C12.2968421,12.0095472 11.9957895,11.8942924 11.7642105,11.6637829 L9.35578947,9.24343268 L6.92421053,11.6637829 C6.46105263,12.124802 5.69684211,12.124802 5.23368421,11.6637829 C4.77052632,11.2027638 4.77052632,10.4420823 5.23368421,9.98106322 L8.52210526,6.70782771 C8.75368421,6.47731816 9.05473684,6.36206339 9.37894737,6.36206339 C9.70315789,6.36206339 10.0042105,6.47731816 10.2357895,6.70782771 L12.6673684,9.12817791 L15.0989474,6.70782771 C15.5621053,6.24680862 16.3263158,6.24680862 16.7894737,6.70782771 C17.2294737,7.19189775 17.2294737,7.92952829 16.7663158,8.41359833 Z" id="Shape"></path>
            </g>
        </g>
    </g>
</svg>