<?xml version="1.0" encoding="UTF-8"?>
<svg width="24px" height="24px" viewBox="0 0 24 24" version="1.1" xmlns="http://www.w3.org/2000/svg" xmlns:xlink="http://www.w3.org/1999/xlink">
    <!-- Generator: Sketch 47.1 (45422) - http://www.bohemiancoding.com/sketch -->
    <title>insta</title>
    <desc>Created with Sketch.</desc>
    <defs></defs>
    <g id="Page-1" stroke="none" stroke-width="1" fill="none" fill-rule="evenodd">
        <g id="Ending-matin" transform="translate(-54.000000, -582.000000)" fill-rule="nonzero" fill="#F4C895">
            <g id="insta" transform="translate(54.000000, 582.000000)">
                <path d="M20.44,0 L3.56,0 C1.5961462,0.00549332954 0.00549332954,1.5961462 0,3.56 L0,20.44 C0.00549332954,22.4038538 1.5961462,23.9945067 3.56,24 L20.44,24 C22.4038538,23.9945067 23.9945067,22.4038538 24,20.44 L24,3.56 C23.9945067,1.5961462 22.4038538,0.00549332954 20.44,0 Z M22,20.44 C22,21.3015642 21.3015642,22 20.44,22 L3.56,22 C2.69843579,22 2,21.3015642 2,20.44 L2,3.56 C2,2.69843579 2.69843579,2 3.56,2 L20.44,2 C21.3015642,2 22,2.69843579 22,3.56 L22,20.44 Z" id="Shape"></path>
                <path d="M12,6 C8.6862915,6 6,8.6862915 6,12 C6,15.3137085 8.6862915,18 12,18 C15.3137085,18 18,15.3137085 18,12 C18,10.4087011 17.367859,8.88257758 16.2426407,7.75735931 C15.1174224,6.63214104 13.5912989,6 12,6 Z M12,16 C9.790861,16 8,14.209139 8,12 C8,9.790861 9.790861,8 12,8 C14.209139,8 16,9.790861 16,12 C16,13.060866 15.5785726,14.0782816 14.8284271,14.8284271 C14.0782816,15.5785726 13.060866,16 12,16 Z" id="Shape"></path>
                <circle id="Oval" cx="18.5" cy="5.5" r="1.5"></circle>
            </g>
        </g>
    </g>
</svg>