<?xml version="1.0" encoding="UTF-8"?>
<svg width="18px" height="22px" viewBox="0 0 18 22" version="1.1" xmlns="http://www.w3.org/2000/svg" xmlns:xlink="http://www.w3.org/1999/xlink">
    <!-- Generator: Sketch 47.1 (45422) - http://www.bohemiancoding.com/sketch -->
    <title>other</title>
    <desc>Created with Sketch.</desc>
    <defs></defs>
    <g id="Page-1" stroke="none" stroke-width="1" fill="none" fill-rule="evenodd">
        <g id="Ending-matin" transform="translate(-58.000000, -733.000000)" fill-rule="nonzero" fill="#F4C895">
            <g id="other" transform="translate(58.000000, 732.000000)">
                <path d="M5,8 L1.99508929,8 C0.892622799,8 0,8.89179693 0,9.99188419 L0,21.0081158 C0,22.1066027 0.893231902,23 1.99508929,23 L16.0049107,23 C17.1073772,23 18,22.1082031 18,21.0081158 L18,9.99188419 C18,8.89339733 17.1067681,8 16.0049107,8 L13,8 L13,9.5 L16.5,9.5 L16.5,21.5 L1.5,21.5 L1.5,9.5 L5,9.5 L5,8 Z" id="Shape"></path>
                <rect id="Rectangle-path" x="8.25" y="2" width="1.5" height="13" rx="0.75"></rect>
                <rect id="Rectangle-path" transform="translate(7.409010, 3.409010) rotate(45.000000) translate(-7.409010, -3.409010) " x="6.65901026" y="0.409009741" width="1.5" height="6" rx="0.75"></rect>
                <rect id="Rectangle-path" transform="translate(10.590990, 3.409010) rotate(135.000000) translate(-10.590990, -3.409010) " x="9.84098974" y="0.409009741" width="1.5" height="6" rx="0.75"></rect>
            </g>
        </g>
    </g>
</svg>