<svg height='100px' width='100px'  fill="#000000" xmlns="http://www.w3.org/2000/svg" xmlns:xlink="http://www.w3.org/1999/xlink" version="1.1" x="0px" y="0px" viewBox="0 0 141.73 141.73" enable-background="new 0 0 141.73 141.73" xml:space="preserve"><g><path fill="#000000" d="M399.127,229.173c0.738-3.242,0.14-6.416-1.689-8.819c-1.818-2.391-4.696-3.762-7.894-3.762   c-1.508,0-3.049,0.309-4.515,0.897c-1.658-1.521-3.827-2.374-6.104-2.374c-4.793,0-8.728,3.744-9.031,8.461   c-4.287,0.709-7.567,4.442-7.567,8.928c0,4.447,3.257,8.205,7.563,8.92c1.578,2.879,4.602,4.695,7.933,4.695   c2.345,0,4.576-0.906,6.254-2.514c0.428,0.075,0.86,0.113,1.295,0.113c2.455,0,4.715-1.206,6.09-3.167   c0.694,0.22,1.42,0.333,2.149,0.333c3.947,0,7.159-3.211,7.159-7.158C400.77,232.064,400.18,230.449,399.127,229.173z    M393.611,237.885c-0.715,0-1.424-0.188-2.051-0.545l-1.452-0.824l-0.665,1.531c-0.705,1.623-2.303,2.672-4.071,2.672   c-0.452,0-0.902-0.069-1.338-0.206l-0.951-0.299l-0.644,0.76c-1.155,1.363-2.838,2.146-4.616,2.146   c-2.428,0-4.611-1.443-5.564-3.679l-0.362-0.848l-0.92-0.061c-3.168-0.207-5.649-2.855-5.649-6.028   c0-3.335,2.714-6.049,5.967-6.052l1.798,0.005l-0.182-1.662c-0.022-0.207-0.034-0.417-0.034-0.631c0-3.335,2.714-6.049,6.05-6.049   c1.779,0,3.46,0.781,4.612,2.145l0.765,0.904l1.058-0.534c1.343-0.679,2.789-1.038,4.184-1.038c2.253,0,4.26,0.94,5.506,2.578   c1.401,1.842,1.758,4.39,0.979,6.992l-0.267,0.892l0.681,0.635c0.855,0.799,1.327,1.877,1.327,3.038   C397.77,236.019,395.904,237.885,393.611,237.885z"></path><path fill="#000000" d="M381.962,222.769c-0.68,0-1.807,0.551-1.807,1.229l0.578,8.65c0,0.678,0.549,1.229,1.229,1.229   c0.678,0,1.229-0.551,1.229-1.229l0.578-8.65C383.768,223.32,382.639,222.769,381.962,222.769z"></path><circle fill="#000000" cx="381.962" cy="236.766" r="1.378"></circle></g><g><path fill="#000000" d="M122.135,68.625c2.041-8.962,0.387-17.734-4.669-24.377c-5.026-6.608-12.981-10.397-21.818-10.397   c-4.168,0-8.428,0.853-12.479,2.48c-4.583-4.203-10.578-6.562-16.871-6.562c-13.248,0-24.124,10.349-24.963,23.387   c-11.85,1.959-20.917,12.279-20.917,24.677c0,12.293,9.002,22.68,20.906,24.655c4.362,7.958,12.719,12.979,21.926,12.979   c6.481,0,12.649-2.505,17.286-6.948c1.183,0.208,2.378,0.313,3.579,0.313c6.786,0,13.032-3.334,16.833-8.754   c1.919,0.607,3.925,0.921,5.941,0.921c10.91,0,19.788-8.876,19.788-19.786C126.678,76.617,125.049,72.153,122.135,68.625z    M106.89,92.705c-1.976,0-3.936-0.521-5.669-1.506l-4.014-2.278l-1.838,4.232c-1.949,4.486-6.365,7.386-11.254,7.386   c-1.249,0-2.494-0.192-3.697-0.57l-2.63-0.825l-1.778,2.1c-3.193,3.769-7.844,5.931-12.76,5.931c-6.71,0-12.746-3.99-15.381-10.169   l-1.001-2.343l-2.543-0.167c-8.756-0.572-15.615-7.893-15.615-16.663c0-9.218,7.501-16.719,16.493-16.728l4.969,0.014l-0.502-4.594   c-0.062-0.572-0.095-1.152-0.095-1.744c0-9.218,7.501-16.72,16.722-16.72c4.918,0,9.564,2.16,12.749,5.928l2.114,2.5l2.923-1.476   c3.712-1.876,7.709-2.87,11.564-2.87c6.227,0,11.773,2.6,15.218,7.126c3.874,5.091,4.859,12.133,2.708,19.327l-0.737,2.464   l1.882,1.755c2.364,2.208,3.668,5.188,3.668,8.397C118.386,87.55,113.228,92.705,106.89,92.705z"></path><path fill="#000000" d="M74.69,50.926c-1.879,0-4.994,1.522-4.994,3.396l1.598,23.91c0,1.874,1.517,3.396,3.396,3.396   c1.874,0,3.396-1.521,3.396-3.396l1.599-23.91C79.684,52.448,76.564,50.926,74.69,50.926z"></path><circle fill="#000000" cx="74.69" cy="89.615" r="3.809"></circle></g></svg>