<svg height='100px' width='100px'  fill="#000000" xmlns="http://www.w3.org/2000/svg" xmlns:xlink="http://www.w3.org/1999/xlink" version="1.1" x="0px" y="0px" viewBox="0 0 141.73 141.73" enable-background="new 0 0 141.73 141.73" xml:space="preserve"><path d="M108.264,69.189c1.579-7.003,0.304-13.854-3.651-19.061C100.678,44.961,94.455,42,87.538,42  c-3.263,0-6.592,0.671-9.747,1.946c-3.588-3.286-8.278-5.123-13.206-5.123c-10.353,0-18.846,8.084-19.515,18.284  c-9.251,1.535-16.341,9.597-16.341,19.278c0,9.618,7.024,17.744,16.341,19.279c3.415,6.224,9.941,10.158,17.138,10.158  c5.078,0,9.899-1.967,13.529-5.425c0.908,0.15,1.859,0.237,2.788,0.237c5.317,0,10.201-2.615,13.162-6.852  c1.514,0.477,3.069,0.714,4.647,0.714c8.538,0,15.476-6.938,15.476-15.452C111.81,75.436,110.535,71.956,108.264,69.189z   M37.669,83.978 M103.824,83.969H37.662c-1.537-2.147-2.449-4.765-2.449-7.584c0-7.197,5.857-13.054,12.881-13.075l3.89,0.021  l-0.388-3.588c-0.042-0.454-0.086-0.907-0.086-1.382c0-7.197,5.878-13.054,13.075-13.054c3.848,0,7.478,1.687,9.985,4.625  l1.643,1.946l2.292-1.146c2.896-1.469,6.03-2.248,9.033-2.248c4.863,0,9.207,2.033,11.908,5.577  c3.026,3.976,3.806,9.489,2.119,15.108l-0.583,1.923l1.47,1.385c1.857,1.729,2.874,4.062,2.874,6.57  C105.326,80.869,104.765,82.555,103.824,83.969z"></path></svg>