<svg height='100px' width='100px'  fill="#000000" xmlns="http://www.w3.org/2000/svg" xmlns:xlink="http://www.w3.org/1999/xlink" version="1.1" x="0px" y="0px" viewBox="0 0 141.73 141.73" enable-background="new 0 0 141.73 141.73" xml:space="preserve"><path d="M59.975,95.794l8.41,8.407c0.002,0.002,0.004,0.005,0.007,0.007l2.177,2.177l2.178-2.179  c0.001-0.001,0.002-0.002,0.002-0.002l8.408-8.41c1.204-1.204,1.204-3.155,0-4.359s-3.157-1.204-4.359,0l-3.146,3.147V74.106  c0-1.701-1.38-3.082-3.083-3.082c-1.702,0-3.083,1.381-3.083,3.082v20.479l-3.15-3.15c-0.603-0.602-1.391-0.902-2.18-0.902  s-1.577,0.301-2.18,0.902C58.771,92.638,58.771,94.59,59.975,95.794z"></path><g><g><path d="M48.639,95.195c-0.068,0-0.136-0.002-0.205-0.006c-9.741-0.639-17.371-8.783-17.371-18.541    c0-9.218,6.741-16.89,15.553-18.347c0.624-9.695,8.708-17.39,18.558-17.39c4.677,0,9.134,1.754,12.541,4.878    c9.569-3.867,19.811-1.593,25.503,5.886c3.759,4.938,4.989,11.462,3.474,18.127c2.166,2.622,3.378,5.942,3.378,9.357    c0,8.112-6.601,14.711-14.715,14.711c-2.537,0-5.046-0.666-7.26-1.924c-1.48-0.841-1.998-2.724-1.155-4.203    c0.841-1.483,2.728-2.001,4.202-1.156c1.286,0.73,2.743,1.118,4.213,1.118c4.714,0,8.55-3.833,8.55-8.546    c0-2.384-0.97-4.6-2.728-6.241l-1.397-1.305l0.546-1.831c1.6-5.352,0.865-10.59-2.013-14.373    c-4.283-5.625-12.469-6.927-19.913-3.166l-2.171,1.099l-1.574-1.858c-2.368-2.8-5.825-4.407-9.48-4.407    c-6.855,0-12.431,5.577-12.431,12.431c0,0.437,0.021,0.865,0.069,1.287l0.386,3.428l-3.71-0.009    c-6.683,0.005-12.259,5.581-12.259,12.436c0,6.521,5.1,11.962,11.609,12.388c1.699,0.112,2.985,1.579,2.874,3.277    C51.605,93.945,50.25,95.195,48.639,95.195z"></path></g></g></svg>