<svg height='100px' width='100px'  fill="#000000" xmlns="http://www.w3.org/2000/svg" xmlns:xlink="http://www.w3.org/1999/xlink" version="1.1" x="0px" y="0px" viewBox="0 0 141.73 141.73" enable-background="new 0 0 141.73 141.73" xml:space="preserve"><path d="M108.543,68.921c1.574-6.985,0.303-13.821-3.643-19.015c-3.925-5.154-10.135-8.109-17.035-8.109  c-3.255,0-6.575,0.67-9.723,1.942c-3.581-3.278-8.259-5.11-13.175-5.11c-10.329,0-18.801,8.064-19.468,18.241  C36.27,58.4,29.198,66.443,29.198,76.1c0,9.596,7.007,17.701,16.301,19.232c3.407,6.21,9.917,10.135,17.097,10.135  c5.066,0,9.875-1.962,13.497-5.411c0.906,0.15,1.855,0.236,2.782,0.236c5.303,0,10.177-2.609,13.13-6.835  c1.51,0.475,3.062,0.711,4.637,0.711c8.517,0,15.438-6.921,15.438-15.415C112.08,75.153,110.807,71.681,108.543,68.921z   M101.859,68.9l-0.581,1.918l0.556,0.523H36.578c-0.003,0.007-0.005,0.016-0.008,0.023h-0.004c1.891-4.845,6.574-8.292,11.95-8.308  l3.88,0.021l-0.387-3.58c-0.042-0.452-0.086-0.905-0.086-1.378c0-7.18,5.864-13.023,13.044-13.023c3.838,0,7.46,1.683,9.961,4.614  l1.638,1.941l2.287-1.143c2.89-1.465,6.016-2.243,9.012-2.243c4.851,0,9.185,2.028,11.88,5.563  C102.764,57.795,103.542,63.295,101.859,68.9z"></path></svg>