<svg height='100px' width='100px'  fill="#000000" xmlns="http://www.w3.org/2000/svg" xmlns:xlink="http://www.w3.org/1999/xlink" version="1.1" x="0px" y="0px" viewBox="0 0 141.73 141.73" enable-background="new 0 0 141.73 141.73" xml:space="preserve"><g><path d="M121.666,69.311c2.043-8.968,0.387-17.749-4.673-24.399c-5.032-6.61-12.99-10.403-21.838-10.403   c-4.167,0-8.434,0.853-12.487,2.483c-4.587-4.208-10.586-6.568-16.881-6.568c-13.258,0-24.142,10.358-24.981,23.407   c-11.859,1.961-20.933,12.288-20.933,24.695c0,12.3,9.009,22.694,20.921,24.671c4.363,7.964,12.729,12.991,21.943,12.991   c6.486,0,12.659-2.507,17.302-6.956c1.178,0.208,2.378,0.312,3.58,0.312c6.79,0,13.042-3.338,16.845-8.757   c1.921,0.605,3.928,0.918,5.945,0.918c10.92,0,19.804-8.881,19.804-19.801C126.213,77.307,124.581,72.839,121.666,69.311z    M106.409,93.407c-1.977,0-3.938-0.521-5.672-1.508l-4.017-2.28l-1.84,4.236c-1.951,4.489-6.37,7.391-11.262,7.391   c-1.257,0-2.502-0.191-3.701-0.567l-2.631-0.826l-1.78,2.101c-3.196,3.771-7.85,5.936-12.77,5.936   c-6.715,0-12.755-3.995-15.392-10.176l-1-2.348l-2.547-0.164c-8.763-0.576-15.626-7.899-15.626-16.676   c0-9.225,7.506-16.732,16.505-16.739l4.973,0.013L49.147,57.2c-0.062-0.571-0.094-1.154-0.094-1.747   c0-9.227,7.507-16.732,16.734-16.732c4.919,0,9.57,2.162,12.758,5.932l2.118,2.502l2.923-1.479   c3.712-1.876,7.712-2.869,11.569-2.869c6.232,0,11.786,2.6,15.233,7.13c3.877,5.093,4.862,12.145,2.709,19.344l-0.736,2.466   l1.882,1.755c2.366,2.21,3.672,5.193,3.672,8.401C117.915,88.248,112.752,93.407,106.409,93.407z"></path><path d="M84.921,62.054L73.432,75.475l-6.905-8.062c-1.491-1.74-4.106-1.943-5.851-0.454c-1.74,1.493-1.942,4.11-0.454,5.853   l10.054,11.742c0.068,0.079,0.149,0.133,0.219,0.205c0.081,0.081,0.148,0.174,0.238,0.249c0.024,0.02,0.051,0.023,0.076,0.046   c0.346,0.28,0.721,0.497,1.124,0.653c0.075,0.03,0.152,0.049,0.23,0.076c0.41,0.13,0.831,0.221,1.264,0.221c0,0,0,0,0.003,0   c0,0,0,0,0.003,0c0,0,0.002,0,0.005,0c0.427,0,0.849-0.091,1.259-0.221c0.081-0.027,0.156-0.046,0.234-0.076   c0.4-0.156,0.775-0.373,1.119-0.653c0.024-0.022,0.054-0.026,0.078-0.046c0.089-0.078,0.157-0.168,0.238-0.251   c0.069-0.07,0.15-0.124,0.218-0.203l14.642-17.104c1.491-1.741,1.286-4.359-0.454-5.851C89.029,60.112,86.412,60.316,84.921,62.054   z"></path></g></svg>