<svg height='100px' width='100px'  fill="#000000" xmlns="http://www.w3.org/2000/svg" xmlns:xlink="http://www.w3.org/1999/xlink" version="1.1" x="0px" y="0px" viewBox="0 0 141.73 141.73" enable-background="new 0 0 141.73 141.73" xml:space="preserve"><g><path d="M85.429,61.884c-1.611-1.612-4.223-1.612-5.835,0l-5.588,5.586l-5.587-5.586c-1.612-1.612-4.223-1.612-5.835,0   s-1.612,4.225,0,5.835l5.587,5.585l-5.587,5.588c-1.612,1.612-1.612,4.223,0,5.835c0.806,0.806,1.862,1.209,2.917,1.209   s2.111-0.403,2.917-1.209l5.587-5.588l5.588,5.588c0.806,0.806,1.861,1.209,2.917,1.209c1.057,0,2.112-0.403,2.918-1.209   c1.611-1.612,1.611-4.223,0-5.835l-5.588-5.588l5.588-5.585C87.041,66.108,87.041,63.495,85.429,61.884z"></path><path d="M121.642,69.333c2.031-8.919,0.384-17.651-4.647-24.265c-5.005-6.574-12.919-10.346-21.717-10.346   c-4.146,0-8.388,0.848-12.42,2.469c-4.562-4.184-10.527-6.532-16.787-6.532c-13.185,0-24.008,10.301-24.844,23.278   c-11.793,1.95-20.817,12.221-20.817,24.56c0,12.23,8.959,22.568,20.807,24.534c4.338,7.92,12.658,12.92,21.822,12.92   c6.45,0,12.588-2.493,17.207-6.918c1.171,0.207,2.364,0.312,3.56,0.312c6.753,0,12.97-3.32,16.752-8.709   c1.91,0.602,3.906,0.913,5.913,0.913c10.858,0,19.694-8.833,19.694-19.691C126.164,77.285,124.541,72.842,121.642,69.333z    M106.469,93.296c-1.967,0-3.917-0.519-5.642-1.499l-3.994-2.268l-1.83,4.213c-1.939,4.465-6.334,7.35-11.199,7.35   c-1.25,0-2.488-0.19-3.681-0.563l-2.616-0.822l-1.771,2.09c-3.179,3.75-7.807,5.902-12.699,5.902   c-6.679,0-12.686-3.974-15.307-10.12l-0.994-2.334l-2.533-0.164c-8.715-0.572-15.541-7.855-15.541-16.583   c0-9.175,7.465-16.64,16.414-16.647l4.945,0.012l-0.5-4.574c-0.062-0.568-0.094-1.147-0.094-1.737   c0-9.175,7.466-16.64,16.643-16.64c4.892,0,9.519,2.151,12.688,5.899l2.105,2.488l2.907-1.471c3.69-1.866,7.669-2.853,11.506-2.853   c6.197,0,11.721,2.585,15.148,7.091c3.854,5.065,4.836,12.078,2.694,19.237l-0.733,2.453l1.872,1.746   c2.354,2.197,3.651,5.163,3.651,8.354C117.911,88.165,112.777,93.296,106.469,93.296z"></path></g></svg>