<svg height='100px' width='100px'  fill="#000000" xmlns="http://www.w3.org/2000/svg" xmlns:xlink="http://www.w3.org/1999/xlink" version="1.1" x="0px" y="0px" viewBox="0 0 141.73 141.73" enable-background="new 0 0 141.73 141.73" xml:space="preserve"><path d="M108,68.916c1.567-6.958,0.301-13.766-3.628-18.939c-3.909-5.134-10.094-8.076-16.967-8.076  c-3.242,0-6.55,0.667-9.685,1.934c-3.565-3.265-8.225-5.09-13.122-5.09c-10.287,0-18.726,8.032-19.39,18.167  c-9.192,1.525-16.236,9.536-16.236,19.154c0,9.558,6.979,17.632,16.236,19.156c3.394,6.185,9.878,10.094,17.029,10.094  c5.045,0,9.836-1.954,13.443-5.39c0.901,0.148,1.848,0.235,2.77,0.235c5.283,0,10.136-2.599,13.078-6.808  c1.504,0.474,3.049,0.709,4.618,0.709c8.482,0,15.376-6.894,15.376-15.354C111.522,75.124,110.256,71.665,108,68.916z   M64.599,45.187c3.823,0,7.43,1.676,9.922,4.595l1.631,1.933l2.277-1.139c2.878-1.459,5.992-2.233,8.976-2.233  c4.832,0,9.147,2.02,11.832,5.541c1.146,1.506,1.966,3.235,2.45,5.106H51.646c-0.022-0.273-0.039-0.548-0.039-0.832  C51.607,51.007,57.448,45.187,64.599,45.187z"></path></svg>