<?xml version="1.0" encoding="UTF-8"?>
<svg width="15px" height="15px" viewBox="0 0 15 15" version="1.1" xmlns="http://www.w3.org/2000/svg" xmlns:xlink="http://www.w3.org/1999/xlink">
    <!-- Generator: Sketch 47.1 (45422) - http://www.bohemiancoding.com/sketch -->
    <title>noun_Cross_1703000</title>
    <desc>Created with Sketch.</desc>
    <defs></defs>
    <g id="Page-1" stroke="none" stroke-width="1" fill="none" fill-rule="evenodd">
        <g id="PDV-night" transform="translate(-30.000000, -27.000000)" fill-rule="nonzero" fill="#FFFFFC">
            <g id="noun_Cross_1703000" transform="translate(30.000000, 27.000000)">
                <path d="M8.88323353,7.50890736 L14.7035928,1.73693587 C15.0988024,1.34501188 15.0988024,0.70368171 14.7035928,0.31175772 C14.3083832,-0.0801662708 13.6616766,-0.0801662708 13.2664671,0.31175772 L7.5,6.01247031 L1.73353293,0.293942993 C1.33832335,-0.0979809976 0.691616766,-0.0979809976 0.296407186,0.293942993 C-0.0988023952,0.685866983 -0.0988023952,1.32719715 0.296407186,1.71912114 L6.11676647,7.49109264 L0.296407186,13.2808789 C-0.0988023952,13.6728029 -0.0988023952,14.314133 0.296407186,14.706057 C0.691616766,15.097981 1.33832335,15.097981 1.73353293,14.706057 L7.5,8.98752969 L13.2664671,14.706057 C13.6616766,15.097981 14.3083832,15.097981 14.7035928,14.706057 C15.0988024,14.314133 15.0988024,13.6728029 14.7035928,13.2808789 L8.88323353,7.50890736 Z" id="Shape"></path>
            </g>
        </g>
    </g>
</svg>