<?xml version="1.0" encoding="UTF-8"?>
<svg width="23px" height="20px" viewBox="0 0 23 20" version="1.1" xmlns="http://www.w3.org/2000/svg" xmlns:xlink="http://www.w3.org/1999/xlink">
    <!-- Generator: Sketch 47.1 (45422) - http://www.bohemiancoding.com/sketch -->
    <title>favourite-big-lines</title>
    <desc>Created with Sketch.</desc>
    <defs></defs>
    <g id="Page-1" stroke="none" stroke-width="1" fill="none" fill-rule="evenodd" stroke-linecap="square" stroke-linejoin="round">
        <g id="iPhone-X" transform="translate(-25.000000, -25.000000)" stroke="#282828" stroke-width="2">
            <g id="favourite-big-lines" transform="translate(26.000000, 26.000000)">
                <path d="M15.1762725,0.00102645973 C13.2957436,0.0927096301 11.5608293,0.993260692 10.4607036,2.4487615 C9.35034512,0.977527399 7.59091926,0.0747849905 5.69011976,0.00102645973 C4.19349705,-0.0109349921 2.75318867,0.543869385 1.68607279,1.54337864 C0.618956916,2.5428879 0.0124543441,3.90521974 0,5.33065139 L0,5.33065139 C0,10.5255386 6.40531437,15.495863 9.43113772,17.6516663 L9.43113772,17.6516663 C10.0602849,18.1161112 10.9397151,18.1161112 11.5688623,17.6516663 L11.5688623,17.6516663 C14.5003743,15.4808921 21,10.533024 21,5.33065139 C20.9856014,3.89401365 20.3687124,2.52249264 19.2866843,1.52145976 C18.2046563,0.520426874 16.7473175,-0.0270137415 15.2391467,0.00102645973 L15.1762725,0.00102645973 Z" id="Shape"></path>
            </g>
        </g>
    </g>
</svg>