<?xml version="1.0" encoding="UTF-8"?>
<svg width="60px" height="44px" viewBox="0 0 60 44" version="1.1" xmlns="http://www.w3.org/2000/svg" xmlns:xlink="http://www.w3.org/1999/xlink">
    <!-- Generator: Sketch 47.1 (45422) - http://www.bohemiancoding.com/sketch -->
    <title>noun_candy_1180108 (3)</title>
    <desc>Created with Sketch.</desc>
    <defs></defs>
    <g id="Page-1" stroke="none" stroke-width="1" fill="none" fill-rule="evenodd">
        <g id="noun_candy_1180108-(3)" transform="translate(30.000000, 22.000000) rotate(-30.000000) translate(-30.000000, -22.000000) translate(0.000000, 7.000000)" fill-rule="nonzero" fill="#000000">
            <path d="M47.2,15 C47.2,23.2 39.5,29.9 30,29.9 C20.5,29.9 12.8,23.2 12.8,15 C12.8,6.8 20.5,0.1 30,0.1 C39.5,0.1 47.2,6.8 47.2,15 Z M11.7,10 L4,6.2 C2.4,5.4 0.3,6.3 0.1,8.1 C0.1,8.2 0.1,8.3 0.1,8.4 C0.1,10 1.8,10 1.8,11.7 C1.8,13.3 0.1,13.3 0.1,15 C0.1,16.6 1.8,16.6 1.8,18.3 C1.8,19.9 0.1,19.9 0.1,21.6 C0.1,21.7 0.1,21.8 0.1,21.9 C0.4,23.7 2.4,24.6 4,23.8 L11.7,20 C11.1,18.4 10.8,16.8 10.8,15 C10.8,13.3 11.1,11.6 11.7,10 Z M60,15 C60,13.4 58.3,13.4 58.3,11.7 C58.3,10.1 60,10.1 60,8.4 C60,8.3 60,8.2 60,8.1 C59.7,6.3 57.7,5.4 56.1,6.2 L48.3,10 C48.9,11.6 49.2,13.2 49.2,15 C49.2,16.7 48.9,18.4 48.3,20 L56,23.8 C57.6,24.6 59.7,23.7 59.9,21.9 C59.9,21.8 59.9,21.7 59.9,21.6 C59.9,20 58.2,20 58.2,18.3 C58.3,16.6 60,16.6 60,15 Z" id="Shape"></path>
        </g>
    </g>
</svg>