<svg height='100px' width='100px'  fill="#000000" xmlns="http://www.w3.org/2000/svg" xmlns:xlink="http://www.w3.org/1999/xlink" version="1.1" x="0px" y="0px" viewBox="0 0 100 100" enable-background="new 0 0 100 100" xml:space="preserve"><path d="M84.33,57.35c0-4.62-3.74-8.36-8.35-8.35h-2.47L73.5,29.31C73.49,15.9,62.58,4.99,49.17,5  C35.76,5.01,24.86,15.92,24.86,29.33l0.01,19.69H24c-4.61,0.01-8.35,3.75-8.35,8.36l0.02,29.27c0,4.61,3.74,8.35,8.35,8.35L76,94.97  c4.61,0,8.35-3.74,8.35-8.35L84.33,57.35z M33.84,49.02l-0.01-19.69c-0.01-8.47,6.88-15.36,15.34-15.37  c8.47,0,15.36,6.89,15.37,15.35L64.55,49L33.84,49.02z"></path></svg>