<svg height='100px' width='100px'  fill="#000000" xmlns="http://www.w3.org/2000/svg" data-name="Layer 1" viewBox="0 0 100 100" x="0px" y="0px"><title>Backward_1</title><line x1="22" y1="27.56" x2="9.52" y2="40.04"></line><path d="M9.52,42.54a2.5,2.5,0,0,1-1.77-4.26L20.23,25.79a2.5,2.5,0,0,1,3.54,3.54L11.28,41.81A2.48,2.48,0,0,1,9.52,42.54Z"></path><line x1="22" y1="52.57" x2="9.52" y2="40.09"></line><path d="M22,55.07a2.49,2.49,0,0,1-1.77-.73L7.75,41.86a2.5,2.5,0,0,1,3.53-3.54L23.77,50.8a2.52,2.52,0,0,1,0,3.54A2.49,2.49,0,0,1,22,55.07Z"></path><path d="M74.3,74.94H49a2.5,2.5,0,0,1,0-5H74.3a13.69,13.69,0,0,0,0-27.37H13.05a2.5,2.5,0,0,1,0-5H74.3a18.69,18.69,0,0,1,0,37.37Z"></path></svg>