<svg height='100px' width='100px'  fill="#000000" xmlns="http://www.w3.org/2000/svg" xmlns:xlink="http://www.w3.org/1999/xlink" xml:space="preserve" version="1.1" style="shape-rendering:geometricPrecision;text-rendering:geometricPrecision;image-rendering:optimizeQuality;" viewBox="0 0 580 677" x="0px" y="0px" fill-rule="evenodd" clip-rule="evenodd"><defs><style type="text/css">
   
    .fil0 {fill:#000000;fill-rule:nonzero}
   
  </style></defs><g><path class="fil0" d="M580 220l0 436 0 21 -22 0 -537 0 -21 0 0 -21 0 -635 0 -21 21 0 343 0 9 0 6 6 195 199 6 6 0 9zm-442 347c-14,17 -40,-4 -26,-21 41,-52 113,-75 178,-75 64,0 137,23 178,75 14,17 -13,38 -26,21 -35,-44 -98,-63 -152,-63 -54,0 -117,19 -152,63zm343 -253l-44 -44 -21 22 -22 -22 -44 44 22 21 -22 22 44 44 22 -22 21 22 44 -44 -22 -22 22 -21zm-382 0l43 -44 22 22 22 -22 44 44 -22 21 22 22 -44 44 -22 -22 -22 22 -43 -44 21 -22 -21 -21zm286 -241l0 125 123 0 -123 -125zm152 168l-173 0 -21 0 0 -21 0 -178 -301 0 0 593 495 0 0 -394z"></path></g></svg>