<svg height='100px' width='100px'  fill="#000000" xmlns="http://www.w3.org/2000/svg" data-name="Layer 1" viewBox="0 0 100 100" x="0px" y="0px"><title>Forward_1</title><line x1="78" y1="27.56" x2="90.48" y2="40.04"></line><path d="M90.49,42.54a2.49,2.49,0,0,1-1.77-.73L76.24,29.33a2.5,2.5,0,0,1,3.53-3.54L92.25,38.28a2.5,2.5,0,0,1-1.76,4.26Z"></path><line x1="78" y1="52.57" x2="90.48" y2="40.09"></line><path d="M78,55.07a2.45,2.45,0,0,1-1.76-.73,2.5,2.5,0,0,1,0-3.54L88.72,38.32a2.5,2.5,0,0,1,3.53,3.54L79.77,54.34A2.49,2.49,0,0,1,78,55.07Z"></path><path d="M51,74.94H25.7a18.69,18.69,0,1,1,0-37.37H87a2.5,2.5,0,0,1,0,5H25.7a13.69,13.69,0,1,0,0,27.37H51a2.5,2.5,0,0,1,0,5Z"></path></svg>